<?xml version="1.0" encoding="utf-8"?>
<svg version="1.1" xmlns:xlink="http://www.w3.org/1999/xlink" width="13px" height="13px" viewBox="355 379  13 13" xmlns="http://www.w3.org/2000/svg">
  <path d="M 361.5 379  C 365.14 379  368 381.86  368 385.5  C 368 389.14  365.14 392  361.5 392  C 357.86 392  355 389.14  355 385.5  C 355 381.86  357.86 379  361.5 379  Z " fill-rule="nonzero" fill="#ffffff" stroke="none" />
  <path d="M 361.5 379.5  C 364.86 379.5  367.5 382.14  367.5 385.5  C 367.5 388.86  364.86 391.5  361.5 391.5  C 358.14 391.5  355.5 388.86  355.5 385.5  C 355.5 382.14  358.14 379.5  361.5 379.5  Z " stroke-width="1" stroke="#797979" fill="none" />
  <path d="M 361.5 388.75  C 359.68 388.75  358.25 387.32  358.25 385.5  C 358.25 383.68  359.68 382.25  361.5 382.25  C 363.32 382.25  364.75 383.68  364.75 385.5  C 364.75 387.32  363.32 388.75  361.5 388.75  " fill-rule="nonzero" fill="#797979" stroke="none" />
</svg>