<?xml version="1.0" encoding="utf-8"?>
<svg version="1.1" xmlns:xlink="http://www.w3.org/1999/xlink" width="13px" height="13px" viewBox="666 451  13 13" xmlns="http://www.w3.org/2000/svg">
  <path d="M 672.5 451  C 676.14 451  679 453.86  679 457.5  C 679 461.14  676.14 464  672.5 464  C 668.86 464  666 461.14  666 457.5  C 666 453.86  668.86 451  672.5 451  Z " fill-rule="nonzero" fill="#f0f0f0" stroke="none" />
  <path d="M 672.5 451.5  C 675.86 451.5  678.5 454.14  678.5 457.5  C 678.5 460.86  675.86 463.5  672.5 463.5  C 669.14 463.5  666.5 460.86  666.5 457.5  C 666.5 454.14  669.14 451.5  672.5 451.5  Z " stroke-width="1" stroke="#797979" fill="none" />
  <path d="M 672.5 460.75  C 670.68 460.75  669.25 459.32  669.25 457.5  C 669.25 455.68  670.68 454.25  672.5 454.25  C 674.32 454.25  675.75 455.68  675.75 457.5  C 675.75 459.32  674.32 460.75  672.5 460.75  " fill-rule="nonzero" fill="#797979" stroke="none" />
</svg>