<?xml version="1.0" encoding="utf-8"?>
<svg version="1.1" xmlns:xlink="http://www.w3.org/1999/xlink" width="13px" height="13px" viewBox="811 451  13 13" xmlns="http://www.w3.org/2000/svg">
  <path d="M 817.5 451  C 821.14 451  824 453.86  824 457.5  C 824 461.14  821.14 464  817.5 464  C 813.86 464  811 461.14  811 457.5  C 811 453.86  813.86 451  817.5 451  Z " fill-rule="nonzero" fill="#f0f0f0" stroke="none" />
  <path d="M 817.5 451.5  C 820.86 451.5  823.5 454.14  823.5 457.5  C 823.5 460.86  820.86 463.5  817.5 463.5  C 814.14 463.5  811.5 460.86  811.5 457.5  C 811.5 454.14  814.14 451.5  817.5 451.5  Z " stroke-width="1" stroke="#797979" fill="none" />
  <path d="M 817.5 460.75  C 815.68 460.75  814.25 459.32  814.25 457.5  C 814.25 455.68  815.68 454.25  817.5 454.25  C 819.32 454.25  820.75 455.68  820.75 457.5  C 820.75 459.32  819.32 460.75  817.5 460.75  " fill-rule="nonzero" fill="#797979" stroke="none" />
</svg>