<?xml version="1.0" encoding="utf-8"?>
<svg version="1.1" xmlns:xlink="http://www.w3.org/1999/xlink" width="13px" height="13px" viewBox="814 392  13 13" xmlns="http://www.w3.org/2000/svg">
  <path d="M 820.5 392  C 824.14 392  827 394.86  827 398.5  C 827 402.14  824.14 405  820.5 405  C 816.86 405  814 402.14  814 398.5  C 814 394.86  816.86 392  820.5 392  Z " fill-rule="nonzero" fill="#f0f0f0" stroke="none" />
  <path d="M 820.5 392.5  C 823.86 392.5  826.5 395.14  826.5 398.5  C 826.5 401.86  823.86 404.5  820.5 404.5  C 817.14 404.5  814.5 401.86  814.5 398.5  C 814.5 395.14  817.14 392.5  820.5 392.5  Z " stroke-width="1" stroke="#797979" fill="none" />
  <path d="M 820.5 401.75  C 818.68 401.75  817.25 400.32  817.25 398.5  C 817.25 396.68  818.68 395.25  820.5 395.25  C 822.32 395.25  823.75 396.68  823.75 398.5  C 823.75 400.32  822.32 401.75  820.5 401.75  " fill-rule="nonzero" fill="#797979" stroke="none" />
</svg>