<?xml version="1.0" encoding="utf-8"?>
<svg version="1.1" xmlns:xlink="http://www.w3.org/1999/xlink" width="13px" height="13px" viewBox="814 458  13 13" xmlns="http://www.w3.org/2000/svg">
  <path d="M 820.5 458  C 824.14 458  827 460.86  827 464.5  C 827 468.14  824.14 471  820.5 471  C 816.86 471  814 468.14  814 464.5  C 814 460.86  816.86 458  820.5 458  Z " fill-rule="nonzero" fill="#ffffff" stroke="none" />
  <path d="M 820.5 458.5  C 823.86 458.5  826.5 461.14  826.5 464.5  C 826.5 467.86  823.86 470.5  820.5 470.5  C 817.14 470.5  814.5 467.86  814.5 464.5  C 814.5 461.14  817.14 458.5  820.5 458.5  Z " stroke-width="1" stroke="#797979" fill="none" />
  <path d="M 820.5 467.75  C 818.68 467.75  817.25 466.32  817.25 464.5  C 817.25 462.68  818.68 461.25  820.5 461.25  C 822.32 461.25  823.75 462.68  823.75 464.5  C 823.75 466.32  822.32 467.75  820.5 467.75  " fill-rule="nonzero" fill="#797979" stroke="none" />
</svg>