<?xml version="1.0" encoding="utf-8"?>
<svg version="1.1" xmlns:xlink="http://www.w3.org/1999/xlink" width="13px" height="13px" viewBox="814 589  13 13" xmlns="http://www.w3.org/2000/svg">
  <path d="M 820.5 589  C 824.14 589  827 591.86  827 595.5  C 827 599.14  824.14 602  820.5 602  C 816.86 602  814 599.14  814 595.5  C 814 591.86  816.86 589  820.5 589  Z " fill-rule="nonzero" fill="#ffffff" stroke="none" />
  <path d="M 820.5 589.5  C 823.86 589.5  826.5 592.14  826.5 595.5  C 826.5 598.86  823.86 601.5  820.5 601.5  C 817.14 601.5  814.5 598.86  814.5 595.5  C 814.5 592.14  817.14 589.5  820.5 589.5  Z " stroke-width="1" stroke="#797979" fill="none" />
  <path d="M 820.5 598.75  C 818.68 598.75  817.25 597.32  817.25 595.5  C 817.25 593.68  818.68 592.25  820.5 592.25  C 822.32 592.25  823.75 593.68  823.75 595.5  C 823.75 597.32  822.32 598.75  820.5 598.75  " fill-rule="nonzero" fill="#797979" stroke="none" />
</svg>