<?xml version="1.0" encoding="utf-8"?>
<svg version="1.1" xmlns:xlink="http://www.w3.org/1999/xlink" width="16px" height="50px" xmlns="http://www.w3.org/2000/svg">
  <g transform="matrix(1 0 0 1 -751 -574 )">
    <path d="M 14.20627802690583 38.17471590909091  C 14.66068759342302 38.62452651515151  14.887892376681615 39.15719696969696  14.887892376681615 39.77272727272727  L 14.887892376681615 47.72727272727273  C 14.887892376681615 48.34280303030303  14.66068759342302 48.87547348484848  14.20627802690583 49.325284090909086  C 13.751868460388641 49.7750946969697  13.21375186846039 50  12.591928251121077 50  L 3.408071748878924 50  C 2.786248131539612 50  2.248131539611361 49.7750946969697  1.7937219730941705 49.325284090909086  C 1.3393124065769808 48.87547348484848  1.1121076233183858 48.34280303030303  1.1121076233183858 47.72727272727273  L 1.1121076233183858 39.77272727272727  C 1.1121076233183858 39.15719696969696  1.3393124065769808 38.62452651515151  1.7937219730941705 38.17471590909091  C 2.248131539611361 37.7249053030303  2.786248131539612 37.5  3.408071748878924 37.5  L 12.591928251121077 37.5  C 13.21375186846039 37.5  13.751868460388641 37.7249053030303  14.20627802690583 38.17471590909091  Z M 15.336322869955158 0.6747159090909116  C 15.778774289985053 1.1245265151515083  15.988041853512708 1.6571969696969668  15.964125560538116 2.2727272727272707  L 14.959641255605382 29.54545454545454  C 14.935724962630793 30.160984848484844  14.690582959641258 30.693655303030297  14.22421524663677 31.143465909090907  C 13.757847533632289 31.593276515151516  13.21375186846039 31.818181818181817  12.591928251121077 31.818181818181817  L 3.408071748878924 31.818181818181817  C 2.786248131539612 31.818181818181817  2.242152466367713 31.593276515151516  1.7757847533632287 31.143465909090907  C 1.3094170403587444 30.693655303030297  1.064275037369208 30.160984848484844  1.0403587443946187 29.54545454545454  L 0.03587443946188341 2.2727272727272707  C 0.01195814648729481 1.6571969696969668  0.22122571001494784 1.1245265151515083  0.6636771300448431 0.6747159090909116  C 1.1061285500747386 0.22490530303029832  1.6382660687593429 0  2.2600896860986546 0  L 13.739910313901346 0  C 14.361733931240659 0  14.893871449925264 0.22490530303029832  15.336322869955158 0.6747159090909116  Z " fill-rule="nonzero" fill="#000000" stroke="none" transform="matrix(1 0 0 1 751 574 )" />
  </g>
</svg>