<?xml version="1.0" encoding="utf-8"?>
<svg version="1.1" xmlns:xlink="http://www.w3.org/1999/xlink" width="13px" height="13px" viewBox="692 451  13 13" xmlns="http://www.w3.org/2000/svg">
  <path d="M 698.5 451  C 702.14 451  705 453.86  705 457.5  C 705 461.14  702.14 464  698.5 464  C 694.86 464  692 461.14  692 457.5  C 692 453.86  694.86 451  698.5 451  Z " fill-rule="nonzero" fill="#f0f0f0" stroke="none" />
  <path d="M 698.5 451.5  C 701.86 451.5  704.5 454.14  704.5 457.5  C 704.5 460.86  701.86 463.5  698.5 463.5  C 695.14 463.5  692.5 460.86  692.5 457.5  C 692.5 454.14  695.14 451.5  698.5 451.5  Z " stroke-width="1" stroke="#797979" fill="none" />
  <path d="M 698.5 460.75  C 696.68 460.75  695.25 459.32  695.25 457.5  C 695.25 455.68  696.68 454.25  698.5 454.25  C 700.32 454.25  701.75 455.68  701.75 457.5  C 701.75 459.32  700.32 460.75  698.5 460.75  " fill-rule="nonzero" fill="#797979" stroke="none" />
</svg>