<?xml version="1.0" encoding="utf-8"?>
<svg version="1.1" xmlns:xlink="http://www.w3.org/1999/xlink" width="13px" height="13px" viewBox="349 773  13 13" xmlns="http://www.w3.org/2000/svg">
  <path d="M 355.5 773  C 359.14 773  362 775.86  362 779.5  C 362 783.14  359.14 786  355.5 786  C 351.86 786  349 783.14  349 779.5  C 349 775.86  351.86 773  355.5 773  Z " fill-rule="nonzero" fill="#f0f0f0" stroke="none" />
  <path d="M 355.5 773.5  C 358.86 773.5  361.5 776.14  361.5 779.5  C 361.5 782.86  358.86 785.5  355.5 785.5  C 352.14 785.5  349.5 782.86  349.5 779.5  C 349.5 776.14  352.14 773.5  355.5 773.5  Z " stroke-width="1" stroke="#797979" fill="none" />
  <path d="M 355.5 782.75  C 353.68 782.75  352.25 781.32  352.25 779.5  C 352.25 777.68  353.68 776.25  355.5 776.25  C 357.32 776.25  358.75 777.68  358.75 779.5  C 358.75 781.32  357.32 782.75  355.5 782.75  " fill-rule="nonzero" fill="#797979" stroke="none" />
</svg>