<?xml version="1.0" encoding="utf-8"?>
<svg version="1.1" xmlns:xlink="http://www.w3.org/1999/xlink" width="29px" height="22px" xmlns="http://www.w3.org/2000/svg">
  <g transform="matrix(1 0 0 1 -1590 -21 )">
    <path d="M 26.774832589285715 19.8515625  C 26.877325148809526 19.752604166666668  26.92857142857143 19.635416666666668  27 19.5  L 27 7.500000000000001  C 26.58333333333334 7.874999999999999  26.21112351190477 8.21875  25.811941964285715 8.53125  C 22.920572916666668 10.677083333333332  20.6225818452381 12.437500000000002  18.91796875 13.812500000000002  C 18.367745535714285 14.260416666666664  17.920014880952383 14.609375  17.574776785714285 14.859375  C 17.22953869047619 15.109375  16.762927827380956 15.361979166666666  16.17494419642857 15.617187500000002  C 15.586960565476192 15.872395833333332  15.034040178571429 16  14.516183035714285 16  L 14.5 16  L 14.483816964285715 16  C 13.965959821428573 16  13.41303943452381 15.872395833333332  12.825055803571427 15.617187500000002  C 12.23707217261905 15.361979166666666  11.77046130952381 15.109375  11.425223214285715 14.859375  C 11.07998511904762 14.609375  10.632254464285715 14.260416666666664  10.08203125 13.812500000000002  C 8.377418154761905 12.437500000000002  6.079427083333335 10.677083333333332  3.1880580357142856 8.53125  C 2.788876488095238 8.21875  2.416666666666667 7.874999999999999  2 7.500000000000001  L 2 19.5  C 2.071428571428571 19.635416666666668  2.1226748511904763 19.752604166666668  2.2251674107142856 19.8515625  C 2.3276599702380953 19.950520833333332  2.449032738095238 20  2.5892857142857144 20  L 26.410714285714285 20  C 26.550967261904763 20  26.672340029761905 19.950520833333332  26.774832589285715 19.8515625  Z M 26.176060267857146 5.132812499999999  C 26.677734375 4.377604166666664  26.92857142857143 3.692708333333333  26.92857142857143 3.0781249999999996  L 26.92857142857143 2.9062499999999996  L 26.92857142857143 2.695312500000001  C 26.92857142857143 2.695312500000001  26.925874255952383 2.6276041666666634  26.920479910714285 2.4921875  C 26.91508556547619 2.356770833333332  26.898902529761905 2.2916666666666634  26.87193080357143 2.296874999999999  C 26.844959077380956 2.302083333333333  26.81529017857143 2.2552083333333313  26.782924107142854 2.15625  C 26.750558035714285 2.0572916666666643  26.70200892857143 2.018229166666665  26.637276785714285 2.039062499999999  C 26.572544642857146 2.059895833333333  26.49702380952381 2.0468749999999996  26.410714285714285 2  L 2.5892857142857144 2  C 2.449032738095238 2.000000000000001  2.3276599702380953 2.049479166666664  2.2251674107142856 2.1484375  C 2.1226748511904763 2.2473958333333313  2.071428571428571 2.364583333333332  2.071428571428571 2.5  C 2.071428571428571 4.250000000000001  2.864397321428571 5.729166666666663  4.450334821428571 6.937499999999999  C 6.532552083333335 8.520833333333332  8.695684523809526 10.171875  10.939732142857142 11.890625  C 11.004464285714285 11.94270833333333  11.19326636904762 12.096354166666666  11.506138392857142 12.351562500000002  C 11.819010416666668 12.606770833333332  12.06715029761905 12.80208333333333  12.250558035714285 12.937500000000002  C 12.433965773809527 13.072916666666664  12.674014136904763 13.236979166666664  12.970703125 13.429687499999998  C 13.267392113095239 13.622395833333332  13.53980654761905 13.765625  13.787946428571427 13.859374999999998  C 14.03608630952381 13.953125  14.268043154761905 14  14.483816964285715 14  L 14.5 14  L 14.516183035714285 14  C 14.731956845238097 14  14.963913690476192 13.953125  15.212053571428571 13.859374999999998  C 15.460193452380956 13.765625  15.732607886904761 13.622395833333332  16.029296875 13.429687499999998  C 16.325985863095237 13.236979166666664  16.566034226190478 13.072916666666664  16.749441964285715 12.937500000000002  C 16.932849702380956 12.80208333333333  17.180989583333336 12.606770833333332  17.493861607142854 12.351562500000002  C 17.806733630952383 12.096354166666666  17.995535714285715 11.94270833333333  18.060267857142854 11.890625  C 20.304315476190478 10.171875  22.467447916666668 8.520833333333332  24.54966517857143 6.937499999999999  C 25.132254464285715 6.489583333333332  25.674386160714285 5.888020833333332  26.176060267857146 5.132812499999999  Z M 28.23939732142857 0.7343749999999989  C 28.746465773809526 1.2239583333333315  29 1.8125000000000002  29 2.5  L 29 19.5  C 29 20.1875  28.746465773809526 20.776041666666668  28.23939732142857 21.265625  C 27.732328869047624 21.755208333333332  27.12276785714286 22  26.410714285714285 22  L 2.5892857142857144 22  C 1.877232142857143 22  1.2676711309523812 21.755208333333332  0.7606026785714286 21.265625  C 0.2535342261904762 20.776041666666668  0 20.1875  0 19.5  L 0 2.5  C 0 1.8125000000000002  0.2535342261904762 1.2239583333333315  0.7606026785714286 0.7343749999999989  C 1.2676711309523812 0.24479166666666385  1.877232142857143 0  2.5892857142857144 0  L 26.410714285714285 0  C 27.12276785714286 0  27.732328869047624 0.24479166666666385  28.23939732142857 0.7343749999999989  Z " fill-rule="nonzero" fill="#ffffff" stroke="none" transform="matrix(1 0 0 1 1590 21 )" />
  </g>
</svg>