<?xml version="1.0" encoding="utf-8"?>
<svg version="1.1" xmlns:xlink="http://www.w3.org/1999/xlink" width="19px" height="22px" xmlns="http://www.w3.org/2000/svg">
  <g transform="matrix(1 0 0 1 -1733 -22 )">
    <path d="M 8.0341796875 12.859933035714285  C 8.087782118055555 13.06045386904762  8.106336805555555 13.185267857142858  8.08984375 13.234375  C 8.081597222222223 13.258928571428571  8.030056423611112 13.25688244047619  7.935221354166667 13.228236607142858  C 7.840386284722223 13.199590773809522  7.710503472222223 13.152529761904761  7.545572916666667 13.087053571428571  L 7.298177083333333 12.9765625  C 6.9353298611111125 12.812872023809522  6.5766059027777795 12.61235119047619  6.222005208333333 12.375  C 6.164279513888889 12.33407738095238  5.995225694444445 12.20517113095238  5.71484375 11.98828125  C 5.434461805555556 11.77139136904762  5.277777777777778 11.654761904761902  5.244791666666667 11.638392857142858  C 4.692274305555556 12.48139880952381  4.139756944444445 13.222098214285715  3.5872395833333335 13.860491071428571  C 2.9192708333333335 14.638020833333332  2.486328125 15.088169642857142  2.288411458333333 15.2109375  C 2.2554253472222223 15.227306547619046  2.175021701388889 15.243675595238093  2.047200520833333 15.260044642857142  C 1.9193793402777781 15.27641369047619  1.8430989583333333 15.27641369047619  1.818359375 15.260044642857142  C 1.8678385416666667 15.227306547619046  2.205946180555556 14.85081845238095  2.8326822916666665 14.130580357142858  C 3.005859375 13.934151785714285  3.3583984375 13.463541666666664  3.8902994791666665 12.71875  C 4.422200520833334 11.973958333333332  4.745876736111112 11.491071428571429  4.861328125 11.270089285714285  C 5.001519097222223 11.024553571428571  5.211805555555556 10.621465773809524  5.4921875 10.060825892857144  C 5.772569444444445 9.500186011904761  5.921006944444445 9.183035714285715  5.9375 9.109375  C 5.871527777777778 9.101190476190476  5.41796875 9.236235119047617  4.576822916666666 9.514508928571429  C 4.510850694444445 9.530877976190476  4.3974609375 9.56156994047619  4.236653645833334 9.606584821428571  C 4.075846354166666 9.65159970238095  3.93359375 9.69047619047619  3.8098958333333335 9.723214285714285  C 3.6861979166666665 9.75595238095238  3.6161024305555562 9.77641369047619  3.599609375 9.784598214285715  C 3.5831163194444446 9.800967261904761  3.5748697916666665 9.843936011904761  3.5748697916666665 9.913504464285715  C 3.5748697916666665 9.983072916666666  3.570746527777778 10.021949404761905  3.5625 10.030133928571429  C 3.5212673611111116 10.111979166666666  3.3934461805555562 10.173363095238095  3.1790364583333335 10.214285714285715  C 2.9893663194444446 10.27157738095238  2.795572916666667 10.27157738095238  2.59765625 10.214285714285715  C 2.44921875 10.181547619047617  2.333767361111111 10.095610119047617  2.251302083333333 9.956473214285715  C 2.2183159722222223 9.907366071428571  2.197699652777778 9.813244047619046  2.189453125 9.674107142857144  C 2.238932291666667 9.657738095238095  2.3399522569444446 9.637276785714285  2.4925130208333335 9.612723214285715  C 2.6450737847222223 9.588169642857144  2.7667100694444446 9.563616071428571  2.857421875 9.5390625  C 3.3357204861111116 9.408110119047617  3.7686631944444446 9.277157738095237  4.15625 9.146205357142856  C 4.980902777777778 8.859747023809522  5.401475694444445 8.716517857142856  5.41796875 8.716517857142856  C 5.500434027777778 8.700148809523807  5.677734375 8.62034970238095  5.949869791666667 8.477120535714285  C 6.222005208333333 8.333891369047617  6.403428819444445 8.245907738095237  6.494140625 8.213169642857144  C 6.568359375 8.188616071428571  6.6570095486111125 8.155877976190476  6.760091145833333 8.114955357142856  C 6.863172743055556 8.074032738095237  6.922960069444445 8.051525297619046  6.939453125 8.047433035714285  C 6.955946180555556 8.043340773809522  6.980685763888889 8.045386904761905  7.013671875 8.053571428571429  C 7.030164930555556 8.151785714285715  7.026041666666667 8.286830357142856  7.001302083333333 8.458705357142856  C 7.001302083333333 8.475074404761905  6.949761284722223 8.585565476190476  6.8466796875 8.790178571428571  C 6.7435980902777795 8.994791666666666  6.634331597222223 9.213727678571429  6.518880208333333 9.446986607142856  C 6.403428819444445 9.680245535714285  6.333333333333333 9.81733630952381  6.30859375 9.858258928571429  C 6.102430555555556 10.267485119047617  5.784939236111111 10.803571428571429  5.356119791666667 11.466517857142858  L 6.147786458333333 11.810267857142858  C 6.246744791666667 11.859375  6.553927951388889 11.99032738095238  7.0693359375 12.203125  C 7.5847439236111125 12.41592261904762  7.8630642361111125 12.53050595238095  7.904296875 12.546875  C 7.9372829861111125 12.555059523809522  7.980577256944445 12.65941220238095  8.0341796875 12.859933035714285  Z M 5.294270833333333 7.059151785714286  C 5.434461805555556 7.059151785714286  5.521050347222223 7.128720238095236  5.554036458333333 7.267857142857144  C 5.578776041666667 7.390625  5.562282986111111 7.505208333333332  5.504557291666667 7.611607142857144  C 5.405598958333333 7.79985119047619  5.199435763888889 7.955357142857144  4.886067708333333 8.078125  C 4.638671875 8.176339285714285  4.391276041666666 8.225446428571429  4.143880208333334 8.225446428571429  C 3.9294704861111116 8.200892857142856  3.7274305555555562 8.094494047619046  3.5377604166666665 7.90625  C 3.422309027777778 7.783482142857144  3.348090277777778 7.615699404761905  3.3151041666666665 7.402901785714286  L 3.3274739583333335 7.366071428571429  C 3.3522135416666665 7.390625  3.4326171875 7.4110863095238075  3.5686848958333335 7.427455357142856  C 3.7047526041666665 7.443824404761905  3.8140190972222223 7.443824404761905  3.896484375 7.427455357142856  C 3.978949652777778 7.4110863095238075  4.218098958333334 7.345610119047617  4.613932291666666 7.231026785714286  C 4.910807291666667 7.1328125  5.137586805555556 7.075520833333332  5.294270833333333 7.059151785714286  Z M 13.248046875 11.122767857142858  L 14.188151041666666 8.8515625  L 14.967447916666666 11.638392857142858  L 13.248046875 11.122767857142858  Z M 0.482421875 6.015625  L 0.482421875 18.67299107142857  L 9 15.824776785714285  L 9 3.1551339285714293  L 0.482421875 6.015625  Z M 15.375651041666666 13.123883928571429  L 15.833333333333334 14.78125  L 17.095052083333336 15.161830357142858  L 14.856119791666666 7.095982142857144  L 13.619140625 6.715401785714286  L 10.947265625 13.295758928571429  L 12.208984375 13.676339285714285  L 12.765625 12.325892857142858  L 15.375651041666666 13.123883928571429  Z M 16.69921875 0.5647321428571439  L 9.611328125 2.970982142857144  L 16.69921875 5.229910714285714  L 16.69921875 0.5647321428571439  Z M 13.990234375 20.109375  L 13.458333333333334 19.213169642857142  L 15.412760416666666 19.372767857142858  L 14.744791666666666 21.33705357142857  L 14.25 20.526785714285715  C 13.17795138888889 21.206101190476193  12.039930555555555 21.648065476190478  10.8359375 21.85267857142857  C 10.35763888888889 21.950892857142858  9.982421875 22  9.710286458333334 22  L 8.671223958333332 22  C 8.01974826388889 22  7.197157118055556 21.840401785714285  6.203450520833333 21.521205357142858  C 5.209743923611111 21.20200892857143  4.453125 20.854166666666668  3.93359375 20.47767857142857  C 3.867621527777778 20.420386904761905  3.8346354166666665 20.354910714285715  3.8346354166666665 20.28125  C 3.8346354166666665 20.21577380952381  3.8552517361111116 20.160528273809526  3.896484375 20.115513392857142  C 3.9377170138888897 20.07049851190476  3.9913194444444446 20.04799107142857  4.057291666666666 20.04799107142857  C 4.090277777777778 20.04799107142857  4.164496527777778 20.078683035714285  4.279947916666666 20.140066964285715  C 4.395399305555556 20.201450892857142  4.521158854166666 20.268973214285715  4.6572265625 20.34263392857143  C 4.793294270833334 20.416294642857142  4.877821180555556 20.461309523809526  4.910807291666667 20.47767857142857  C 5.512803819444445 20.780505952380953  6.170464409722223 21.03218005952381  6.8837890625 21.232700892857142  C 7.5971137152777795 21.433221726190474  8.246527777777779 21.533482142857142  8.83203125 21.533482142857142  C 9.61545138888889 21.533482142857142  10.304036458333334 21.474144345238095  10.897786458333334 21.35546875  C 11.491536458333334 21.236793154761905  12.13888888888889 21.03013392857143  12.83984375 20.73549107142857  C 12.963541666666666 20.678199404761905  13.089301215277779 20.614769345238095  13.217122395833334 20.545200892857142  C 13.34494357638889 20.47563244047619  13.485134548611112 20.397879464285715  13.6376953125 20.311941964285715  C 13.79025607638889 20.226004464285715  13.907769097222225 20.158482142857142  13.990234375 20.109375  Z M 17.181640625 5.389508928571429  L 19 5.966517857142856  L 19 19.213169642857142  L 9.42578125 16.193080357142858  C 9.310329861111112 16.2421875  7.7641059027777795 16.763950892857142  4.787109375 17.758370535714285  C 1.8101128472222223 18.75279017857143  0.2927517361111111 19.25  0.23502604166666666 19.25  C 0.12782118055555555 19.25  0.05360243055555555 19.1968005952381  0.012369791666666666 19.090401785714285  C 0.012369791666666666 19.08221726190476  0.008246527777777778 19.069940476190474  0 19.05357142857143  L 0 5.819196428571429  C 0.024739583333333332 5.745535714285714  0.04123263888888888 5.704613095238093  0.049479166666666664 5.696428571428571  C 0.09071180555555557 5.647321428571429  0.17317708333333334 5.602306547619047  0.296875 5.561383928571429  C 1.1792534722222223 5.266741071428571  1.7936197916666667 5.062127976190475  2.139973958333333 4.947544642857144  L 2.139973958333333 0.23325892857142927  L 9.042317708333332 2.6640625  C 9.05881076388889 2.6640625  9.720594618055555 2.4389880952380927  11.027669270833334 1.9888392857142854  C 12.334743923611112 1.5386904761904756  13.6376953125 1.0946800595238073  14.9365234375 0.6568080357142854  C 16.2353515625 0.21893601190476342  16.901258680555557 0  16.934244791666664 0  C 17.099175347222225 0  17.181640625 0.0859375  17.181640625 0.2578125  L 17.181640625 5.389508928571429  Z " fill-rule="nonzero" fill="#ffffff" stroke="none" transform="matrix(1 0 0 1 1733 22 )" />
  </g>
</svg>