<?xml version="1.0" encoding="utf-8"?>
<svg version="1.1" xmlns:xlink="http://www.w3.org/1999/xlink" width="19px" height="19px" xmlns="http://www.w3.org/2000/svg">
  <g transform="matrix(1 0 0 1 -1772 -23 )">
    <path d="M 15.928476223394084 8.027283567358234  C 15.737993672899798 8.022550223315282  15.547424823780286 8.032431571047386  15.358522614966859 8.05683671742479  C 15.358522614966859 8.673230990242374  15.358522614966859 9.26851587015527  15.358522614966859 9.863800750068117  C 15.358522614966859 12.156280819519838  15.358522614966859 14.452982767552491  15.358522614966859 16.74546283700421  C 15.358522614966859 18.261117247562503  14.766979854705273 18.835292734570686  13.229832244098525 18.8564021274754  C 10.67655522048769 18.8564021274754  8.12327819687686 18.8564021274754  5.570001173266024 18.8564021274754  C 4.132163661097354 18.8564021274754  3.5622100526701326 18.307557911952888  3.5535743919363867 16.893228587337205  C 3.536303070468895 14.227815909902233  3.536303070468895 11.562403232467284  3.5535743919363867 8.896990555032335  C 3.5535743919363867 8.21726810350061  3.4154038201964543 7.887961574187103  2.603651711224351 8.077946110329503  C 1.760210736839582 8.329740290988859  0.8627718332757985 7.891919968009961  0.561317947693476 7.081582765227118  C 0.12953491100618728 6.106328813029424  -0.44905435815477945 5.01286226056536  0.561317947693476 4.067161458434268  C 1.7962174326191216 2.8934792129322826  3.108837864148479 1.7915689033063282  4.447365277879074 0.7234336223279115  C 5.090722002543134 0.21258631403388348  5.74271438794094 0.27591449274801283  6.304032335634415 1.0147432444129354  C 7.521660499092569 2.6275008623329175  11.196134141301394 2.648610255237631  12.495801081730134 1.086515180288943  C 13.195289601163543 0.2421394641004756  13.709111414821415 0.16614564964351075  14.58131314892974 0.8627556154990056  C 15.703949044316689 1.7577938746587911  16.800677957502405 2.6823852838851683  17.893089040321247 3.615420450273436  C 18.985500123140085 4.548455616661704  19.054585409010052 5.3421687898788415  18.385321702144754 6.798716900303997  C 17.832639415185024 8.001952295872563  17.45267034290021 8.191936832014987  15.928476223394084 8.027283567358234  Z M 13.51049121794526 1.0780714231270647  C 12.089925027244083 3.5436485143974044  6.908528586996618 3.7294111719588714  5.220256913549321 1.061183908803296  C 3.8169620443156314 2.2770849401146975  2.34889971957885 3.395882764064432  1.1183180650200777 4.72577451706128  C 0.8031164482383568 5.067746682117611  1.1485428775881878 6.1105506916103565  1.3817057173993237 6.769163750237368  C 1.4766979854705273 7.0309202222558005  2.1027833886670955 7.267345422788561  2.474116800218164 7.250457908464804  C 3.9983109197242923 7.170242215426883  4.36964433127536 7.4615518375119185  4.3739621616422335 8.97720624807021  C 4.3739621616422335 11.472336489407178  4.3739621616422335 13.97168860932503  4.3739621616422335 16.466818850662  C 4.3739621616422335 17.978251382639357  4.430093956411581 18.028913925610674  5.928381093716472 18.03313580419161  L 12.862816662914328 18.03313580419161  C 14.430189086089186 18.03313580419161  14.525181354160392 17.94025447541086  14.52949918452726 16.449931336338217  C 14.52949918452726 13.853476009058662  14.52949918452726 11.252798803198148  14.52949918452726 8.656343475918593  C 14.52949918452726 7.52910189480697  15.00014269451641 7.064695250903338  15.997561509264042 7.237792272721958  C 16.8006779575024 7.377114265893039  17.29291061932591 7.237792272721958  17.634019218308868 6.435635342342906  C 17.975127817291828 5.633478411963877  18.17806584453485 4.8988715388799  17.366313735562752 4.240258480252887  C 16.64955389466185 3.657639236082852  15.950065375228442 3.0539105990080784  15.237623364694418 2.4670694762570977  C 14.676305417000941 2.002662832353442  14.106351808573724 1.5509218241926102  13.51049121794526 1.0780714231270647  Z " fill-rule="nonzero" fill="#ffffff" stroke="none" transform="matrix(1 0 0 1 1772 23 )" />
  </g>
</svg>