<svg width="32" height="32" viewBox="0 0 1024 1024" fill="#1E1E1E" xmlns="http://www.w3.org/2000/svg" version="1.1"><path d="M513.116 320C459.734 320 416 363.341 416 416V448H352V416C352 327.274 425.112 256 513.116 256C599.897 256 672 326.284 672 413.788V424.04C672 490.419 626.824 548.279 562.428 564.378C551.598 567.085 544 576.816 544 587.98V608H480V587.98C480 547.449 507.585 512.119 546.906 502.289C582.811 493.312 608 461.051 608 424.04V413.788C608 362.35 565.276 320 513.116 320Z" fill="#1E1E1E"></path><path d="M464.18 720C464.18 693.49 485.67 672 512.18 672C538.689 672 560.18 693.49 560.18 720C560.18 746.51 538.689 768 512.18 768C485.67 768 464.18 746.51 464.18 720Z" fill="#1E1E1E"></path><path d="M960 512C960 759.424 759.424 960 512 960C264.576 960 64 759.424 64 512C64 264.576 264.576 64 512 64C759.424 64 960 264.576 960 512ZM896 512C896 299.923 724.077 128 512 128C299.923 128 128 299.923 128 512C128 724.077 299.923 896 512 896C724.077 896 896 724.077 896 512Z" fill="#1E1E1E"></path></svg>