<?xml version="1.0" encoding="utf-8"?>
<svg version="1.1" xmlns:xlink="http://www.w3.org/1999/xlink" width="92px" height="39px" xmlns="http://www.w3.org/2000/svg">
  <defs>
    <mask fill="white" id="clip2">
      <path d="M 0 36  L 0 3  C 0 1.3199999999999932  1.3199999999999932 0  3 0  L 55.4680851063838 0  L 89 0  C 90.68 0  92 1.3199999999999932  92 3  L 92 36  C 92 37.68000000000001  90.68 39  89 39  L 3 39  C 1.3199999999999932 39  0 37.68000000000001  0 36  Z " fill-rule="evenodd" />
    </mask>
  </defs>
  <g transform="matrix(1 0 0 1 -304 -65 )">
    <path d="M 0 36  L 0 3  C 0 1.3199999999999932  1.3199999999999932 0  3 0  L 55.4680851063838 0  L 89 0  C 90.68 0  92 1.3199999999999932  92 3  L 92 36  C 92 37.68000000000001  90.68 39  89 39  L 3 39  C 1.3199999999999932 39  0 37.68000000000001  0 36  Z " fill-rule="nonzero" fill="#ffffff" stroke="none" transform="matrix(1 0 0 1 304 65 )" />
    <path d="M 0 36  L 0 3  C 0 1.3199999999999932  1.3199999999999932 0  3 0  L 55.4680851063838 0  L 89 0  C 90.68 0  92 1.3199999999999932  92 3  L 92 36  C 92 37.68000000000001  90.68 39  89 39  L 3 39  C 1.3199999999999932 39  0 37.68000000000001  0 36  Z " stroke-width="2" stroke="#d7d7d7" fill="none" transform="matrix(1 0 0 1 304 65 )" mask="url(#clip2)" />
  </g>
</svg>