<?xml version="1.0" encoding="utf-8"?>
<svg version="1.1" xmlns:xlink="http://www.w3.org/1999/xlink" width="16px" height="17px" xmlns="http://www.w3.org/2000/svg">
  <g transform="matrix(1 0 0 1 -271 -76 )">
    <path d="M 9.474120082815736 15.19438877755511  C 9.584541062801934 15.307949231796927  9.639751552795031 15.438543754175015  9.639751552795031 15.586172344689379  C 9.639751552795031 15.73380093520374  9.584541062801934 15.864395457581828  9.474120082815736 15.977955911823647  L 8.645962732919255 16.829659318637276  C 8.535541752933058 16.943219772879093  8.408557625948932 17  8.265010351966874 17  C 8.121463077984817 17  7.9944789510006915 16.943219772879093  7.884057971014493 16.829659318637276  L 0.16563146997929606 8.891783567134269  C 0.05521048999309873 8.77822311289245  0 8.64762859051436  0 8.5  C 0 8.352371409485638  0.05521048999309873 8.221776887107549  0.16563146997929606 8.108216432865731  L 7.884057971014493 0.17034068136272562  C 7.9944789510006915 0.05678022712090791  8.121463077984817 0  8.265010351966874 0  C 8.408557625948932 0  8.535541752933058 0.05678022712090791  8.645962732919255 0.17034068136272562  L 9.474120082815736 1.0220440881763517  C 9.584541062801934 1.1356045424181676  9.639751552795031 1.266199064796257  9.639751552795031 1.4138276553106217  C 9.639751552795031 1.5614562458249828  9.584541062801934 1.6920507682030719  9.474120082815736 1.8056112224448897  L 2.9648033126293996 8.5  L 9.474120082815736 15.19438877755511  Z M 15.834368530020704 15.19438877755511  C 15.944789510006903 15.307949231796927  16.000000000000004 15.438543754175015  16 15.586172344689379  C 16.000000000000004 15.73380093520374  15.944789510006903 15.864395457581828  15.834368530020704 15.977955911823647  L 15.006211180124224 16.829659318637276  C 14.895790200138027 16.943219772879093  14.7688060731539 17  14.625258799171842 17  C 14.48171152518979 17  14.354727398205661 16.943219772879093  14.244306418219463 16.829659318637276  L 6.525879917184265 8.891783567134269  C 6.415458937198069 8.77822311289245  6.36024844720497 8.64762859051436  6.3602484472049685 8.5  C 6.36024844720497 8.352371409485638  6.415458937198069 8.221776887107549  6.525879917184265 8.108216432865731  L 14.244306418219463 0.17034068136272562  C 14.354727398205661 0.05678022712090791  14.48171152518979 0  14.625258799171842 0  C 14.7688060731539 0  14.895790200138027 0.05678022712090791  15.006211180124224 0.17034068136272562  L 15.834368530020704 1.0220440881763517  C 15.944789510006903 1.1356045424181676  16.000000000000004 1.266199064796257  16 1.4138276553106217  C 16.000000000000004 1.5614562458249828  15.944789510006903 1.6920507682030719  15.834368530020704 1.8056112224448897  L 9.325051759834368 8.5  L 15.834368530020704 15.19438877755511  Z " fill-rule="nonzero" fill="#aaaaaa" stroke="none" transform="matrix(1 0 0 1 271 76 )" />
  </g>
</svg>