<?xml version="1.0" encoding="utf-8"?>
<svg version="1.1" xmlns:xlink="http://www.w3.org/1999/xlink" width="13px" height="13px" viewBox="349 614  13 13" xmlns="http://www.w3.org/2000/svg">
  <path d="M 355.5 614  C 359.14 614  362 616.86  362 620.5  C 362 624.14  359.14 627  355.5 627  C 351.86 627  349 624.14  349 620.5  C 349 616.86  351.86 614  355.5 614  Z " fill-rule="nonzero" fill="#ffffff" stroke="none" />
  <path d="M 355.5 614.5  C 358.86 614.5  361.5 617.14  361.5 620.5  C 361.5 623.86  358.86 626.5  355.5 626.5  C 352.14 626.5  349.5 623.86  349.5 620.5  C 349.5 617.14  352.14 614.5  355.5 614.5  Z " stroke-width="1" stroke="#797979" fill="none" />
  <path d="M 355.5 623.75  C 353.68 623.75  352.25 622.32  352.25 620.5  C 352.25 618.68  353.68 617.25  355.5 617.25  C 357.32 617.25  358.75 618.68  358.75 620.5  C 358.75 622.32  357.32 623.75  355.5 623.75  " fill-rule="nonzero" fill="#797979" stroke="none" />
</svg>