<?xml version="1.0" encoding="utf-8"?>
<svg version="1.1" xmlns:xlink="http://www.w3.org/1999/xlink" width="13px" height="13px" viewBox="349 753  13 13" xmlns="http://www.w3.org/2000/svg">
  <path d="M 355.5 753  C 359.14 753  362 755.86  362 759.5  C 362 763.14  359.14 766  355.5 766  C 351.86 766  349 763.14  349 759.5  C 349 755.86  351.86 753  355.5 753  Z " fill-rule="nonzero" fill="#ffffff" stroke="none" />
  <path d="M 355.5 753.5  C 358.86 753.5  361.5 756.14  361.5 759.5  C 361.5 762.86  358.86 765.5  355.5 765.5  C 352.14 765.5  349.5 762.86  349.5 759.5  C 349.5 756.14  352.14 753.5  355.5 753.5  Z " stroke-width="1" stroke="#797979" fill="none" />
  <path d="M 355.5 762.75  C 353.68 762.75  352.25 761.32  352.25 759.5  C 352.25 757.68  353.68 756.25  355.5 756.25  C 357.32 756.25  358.75 757.68  358.75 759.5  C 358.75 761.32  357.32 762.75  355.5 762.75  " fill-rule="nonzero" fill="#797979" stroke="none" />
</svg>