<svg width="32" height="32" viewBox="0 0 1024 1024" fill="#1E1E1E" xmlns="http://www.w3.org/2000/svg" version="1.1"><path d="M576 192C576 227.346 547.346 256 512 256C476.654 256 448 227.346 448 192C448 156.654 476.654 128 512 128C547.346 128 576 156.654 576 192Z" fill="#1E1E1E"></path><path d="M576 832C576 867.346 547.346 896 512 896C476.654 896 448 867.346 448 832C448 796.654 476.654 768 512 768C547.346 768 576 796.654 576 832Z" fill="#1E1E1E"></path><path d="M512 576C547.346 576 576 547.346 576 512C576 476.654 547.346 448 512 448C476.654 448 448 476.654 448 512C448 547.346 476.654 576 512 576Z" fill="#1E1E1E"></path></svg>