<?xml version="1.0" encoding="utf-8"?>
<svg version="1.1" xmlns:xlink="http://www.w3.org/1999/xlink" width="16px" height="21px" xmlns="http://www.w3.org/2000/svg">
  <g transform="matrix(1 0 0 1 -611 -841 )">
    <path d="M 1.511265164644714 0.22265625000000067  L 15.708838821490469 12.22265625  C 15.995378393991913 12.45703125  16.060080878105143 12.7265625  15.902946273830157 13.03125  C 15.745811669555172 13.343750000000002  15.473136915077989 13.499999999999998  15.084922010398614 13.499999999999998  L 9.788561525129982 13.499999999999998  L 12.575389948006933 19.078125  C 12.66782206816869 19.2734375  12.66782206816869 19.46484375  12.575389948006933 19.65234375  C 12.482957827845178 19.83984375  12.325823223570191 19.976562500000004  12.103986135181975 20.0625  L 9.649913344887349 20.94140625  C 9.418833044482959 21.01953125  9.192374350086656 21.01953125  8.970537261698441 20.94140625  C 8.748700173310226 20.86328125  8.586943963027153 20.73046875  8.48526863084922 20.54296875  L 5.837088388214904 15.24609375  L 1.511265164644714 18.90234375  C 1.3356441363373774 19.05078125  1.127671865973426 19.125  0.8873483535528596 19.125  C 0.7764298093587522 19.125  0.6655112651646448 19.10546875  0.5545927209705372 19.06640625  C 0.1848642403235124 18.93359375  0 18.703125  0 18.375  L 0 0.7499999999999997  C 0 0.42187499999999967  0.1848642403235124 0.19140624999999845  0.5545927209705372 0.058593750000000666  C 0.6655112651646448 0.019531250000000222  0.7764298093587522 0  0.8873483535528596 0  C 1.1369150779896013 0  1.3448873483535528 0.07421875000000178  1.511265164644714 0.22265625000000067  Z " fill-rule="nonzero" fill="#000000" stroke="none" transform="matrix(1 0 0 1 611 841 )" />
  </g>
</svg>